<?xml version="1.0" standalone="no"?>
<!DOCTYPE svg PUBLIC "-//W3C//DTD SVG 20010904//EN"
 "http://www.w3.org/TR/2001/REC-SVG-20010904/DTD/svg10.dtd">
<svg version="1.0" xmlns="http://www.w3.org/2000/svg"
 width="300.000000pt" height="300.000000pt" viewBox="0 0 300.000000 300.000000"
 preserveAspectRatio="xMidYMid meet">
<metadata>
Created by potrace 1.14, written by Peter Selinger 2001-2017
</metadata>
<g transform="translate(0.000000,300.000000) scale(0.100000,-0.100000)"
fill="#000000" stroke="none">
<path d="M910 2864 c-148 -23 -255 -66 -379 -149 -292 -196 -451 -558 -397
-905 59 -378 337 -676 713 -766 80 -19 281 -27 338 -14 22 5 54 11 70 14 91
17 214 69 302 129 l74 50 50 -49 c27 -26 49 -52 49 -56 0 -4 -20 -27 -43 -51
-44 -44 -55 -71 -49 -117 3 -17 123 -145 385 -408 210 -211 394 -389 409 -397
36 -20 78 -19 108 2 59 41 328 320 332 343 9 60 -7 80 -390 463 -345 346 -424
417 -459 411 -7 -1 -20 -2 -27 -3 -8 0 -36 -21 -63 -46 -26 -25 -49 -45 -52
-45 -3 0 -26 22 -53 50 l-47 49 38 58 c112 169 163 349 157 548 -2 61 -6 119
-9 130 -3 11 -8 34 -12 50 -69 304 -296 560 -590 667 -132 48 -315 65 -455 42z
m270 -205 c280 -58 482 -242 565 -513 25 -83 33 -252 15 -331 -6 -27 -13 -57
-15 -65 -11 -50 -53 -140 -96 -203 -101 -150 -237 -246 -419 -296 -87 -24
-262 -26 -347 -4 -246 64 -427 229 -513 468 -30 82 -33 102 -35 220 -3 119 -1
137 25 217 61 191 174 333 340 426 54 30 124 59 165 68 11 2 34 8 50 12 41 12
210 12 265 1z m910 -1615 c0 -11 -122 -134 -132 -134 -5 0 -23 14 -41 32 l-32
32 70 70 70 71 33 -32 c17 -17 32 -35 32 -39z m345 -339 c102 -102 185 -187
185 -190 0 -6 -129 -135 -135 -135 -3 0 -90 85 -194 189 l-189 189 67 66 c36
36 69 66 74 66 4 0 91 -83 192 -185z"/>
<path d="M1000 2368 c-30 -4 -82 -21 -115 -38 -228 -112 -314 -388 -189 -607
141 -246 486 -285 684 -78 28 30 65 84 83 122 30 64 32 75 32 178 0 103 -2
114 -31 176 -86 181 -267 277 -464 247z m104 -34 c28 -11 18 -43 -21 -68 -36
-23 -38 -23 -47 -5 -5 10 -5 26 -1 36 5 10 7 24 6 31 -2 13 36 16 63 6z m-89
-13 c6 -11 -7 -21 -37 -26 -26 -5 -55 -32 -45 -41 4 -4 13 -1 22 6 8 7 15 9
15 5 0 -4 6 -2 14 4 17 14 24 5 24 -31 0 -23 -5 -28 -27 -28 -14 -1 -37 -7
-51 -15 -14 -8 -35 -14 -47 -15 -13 0 -30 -11 -39 -25 -16 -25 -18 -25 -36 -8
-15 13 -23 15 -36 7 -19 -12 -29 -54 -13 -54 6 0 8 -7 5 -15 -4 -8 1 -27 11
-41 12 -19 22 -24 40 -20 14 4 31 -1 46 -13 13 -10 34 -21 47 -25 12 -4 22
-11 22 -16 0 -5 18 -28 40 -51 22 -24 40 -46 40 -50 0 -17 -54 -88 -76 -99
-13 -7 -26 -21 -29 -30 -3 -9 -19 -29 -35 -44 -19 -16 -30 -36 -30 -52 l0 -26
-24 29 c-25 29 -33 93 -17 136 6 16 0 36 -20 75 -33 60 -36 88 -13 113 18 20
11 59 -11 59 -8 0 -17 10 -20 23 -4 12 -16 31 -26 43 -19 20 -19 21 7 60 35
52 79 98 127 131 35 25 55 30 154 42 6 0 14 -3 18 -8z m353 -89 c35 -35 83
-119 98 -170 16 -55 22 -146 12 -197 -18 -93 -75 -185 -140 -225 -75 -46 -118
-37 -88 20 5 10 11 32 12 49 1 18 9 38 18 46 12 11 14 27 10 72 l-5 58 -37 3
c-51 4 -104 53 -89 81 6 11 11 28 11 38 1 52 88 94 140 68 47 -24 70 -27 70
-12 0 8 -11 18 -25 21 -14 4 -25 11 -25 17 0 6 -5 7 -10 4 -6 -4 -18 -1 -26 6
-12 10 -17 10 -23 0 -6 -9 -15 -9 -34 -2 -34 13 -34 26 -2 47 30 20 32 35 5
52 -21 13 -27 3 -9 -15 6 -6 8 -16 4 -23 -5 -8 -12 -6 -25 7 -16 16 -16 21 -2
48 19 39 15 36 52 40 18 3 35 7 38 10 6 6 45 -18 70 -43z m-248 30 c0 -13 -12
-22 -22 -16 -10 6 -1 24 13 24 5 0 9 -4 9 -8z m-286 -158 c22 -9 10 -23 -14
-17 -11 3 -17 9 -14 14 6 11 8 11 28 3z m46 -39 c0 -9 -6 -12 -15 -9 -8 4 -12
10 -9 15 8 14 24 10 24 -6z m126 -478 c23 -8 58 -11 87 -7 57 7 118 -13 98
-33 -19 -19 -217 -15 -265 6 -32 14 -36 19 -26 32 15 18 55 19 106 2z"/>
</g>
</svg>
